# 3ds Max Wavefront OBJ Exporter v0.97b - (c)2007 guruware
# File Created: 05.08.2017 17:06:06

#
# object Box041
#

v  -1.3185 0.0362 -1.6811
v  1.3185 0.0362 -1.6811
v  1.3185 -0.0362 -1.6811
v  -1.3185 -0.0362 -1.6811
v  0.8450 0.0362 1.6643
v  0.6934 0.0362 1.5678
v  0.6934 -0.0362 1.5678
v  0.8450 -0.0362 1.6643
v  1.2450 -0.5386 -1.6076
v  1.2450 -0.5386 1.6045
v  0.7735 -0.5386 1.5847
v  -1.2450 -0.5386 -1.6076
v  0.6555 -0.5386 1.4931
v  0.4708 -0.5386 1.2025
v  -0.3624 -0.5386 1.1880
v  -0.5643 -0.5386 1.1845
v  -1.2450 -0.5386 0.8330
v  1.3185 0.0362 1.6780
v  1.3185 -0.0362 1.6780
v  -1.2450 0.5386 0.8330
v  -0.5643 0.5386 1.1845
v  -0.3624 0.5386 1.1880
v  0.4708 0.5386 1.2025
v  -1.2450 0.5386 -1.6076
v  1.2450 0.5386 -1.6076
v  0.6555 0.5386 1.4931
v  0.7735 0.5386 1.5847
v  1.2450 0.5386 1.6045
v  -1.3109 -0.0362 0.8731
v  -1.3109 0.0362 0.8731
v  -0.5800 -0.0362 1.2468
v  -0.5800 0.0362 1.2468
v  -1.3550 0.4286 -1.7176
v  1.3550 0.4286 -1.7176
v  1.3550 -0.4286 -1.7176
v  -1.3550 -0.4286 -1.7176
v  0.4441 -0.4286 1.3125
v  0.7099 -0.4286 1.6102
v  0.7099 0.4286 1.6102
v  0.8799 0.4286 1.7063
v  1.3550 -0.4286 1.7146
v  -1.3550 -0.4286 0.9000
v  1.3550 0.4286 1.7146
v  -1.3550 0.4286 0.9000
v  -0.5910 -0.4286 1.2946
v  -0.5910 0.4286 1.2946
v  1.3550 0.0362 -1.7176
v  -1.3550 0.0362 -1.7176
v  -1.3550 -0.0362 -1.7176
v  1.3550 -0.0362 -1.7176
v  0.7099 -0.0362 1.6102
v  0.4441 -0.0362 1.3125
v  1.3550 0.0362 1.7146
v  1.3550 -0.0362 1.7146
v  -1.3550 -0.0362 0.9000
v  -1.3550 0.0362 0.9000
v  -0.5910 -0.0362 1.2946
v  -0.5910 0.0362 1.2946
v  0.7099 0.0362 1.6102
v  0.8799 0.0362 1.7063
v  0.4563 -0.0362 1.2695
v  -0.3892 0.4286 1.2981
v  -0.3892 0.0362 1.2981
v  0.4441 0.0362 1.3125
v  0.4441 0.4286 1.3125
v  -0.3892 -0.4286 1.2981
v  -0.3780 0.0362 1.2512
v  -0.3780 -0.0362 1.2512
v  0.4563 0.0362 1.2695
v  -0.3892 -0.0362 1.2981
v  0.8799 -0.4286 1.7063
v  0.8799 -0.0362 1.7063
v  -0.3940 0.4286 1.7176
v  -0.3940 0.0362 1.7176
v  -0.3940 -0.0362 1.7176
v  -0.3940 -0.4286 1.7176
v  -0.5938 0.0362 1.5985
v  -0.5938 0.4286 1.5985
v  -0.3919 0.0362 1.6020
v  -0.3919 0.4286 1.6020
v  -0.3919 -0.4286 1.6020
v  -0.5938 -0.4286 1.5985
v  -0.3919 -0.0362 1.6020
v  -0.5938 -0.0362 1.5985
v  -0.3139 0.4286 1.6006
v  -0.3118 0.4286 1.7159
v  -0.3139 0.0362 1.6006
v  -0.3118 0.0362 1.7159
v  -0.3118 -0.0362 1.7159
v  -0.3118 -0.4286 1.7159
v  -0.3139 -0.0362 1.6006
v  -0.3139 -0.4286 1.6006
# 92 vertices

vn 0.0000 0.0000 -1.0000
vn -0.2934 -0.0000 0.9560
vn -0.6690 -0.0000 0.7433
vn -0.2934 0.0000 0.9560
vn 0.0000 -1.0000 0.0000
vn 1.0000 0.0000 0.0000
vn 0.0000 1.0000 0.0000
vn -1.0000 0.0000 0.0030
vn -0.4552 0.0000 0.8904
vn -0.2448 0.0000 0.9696
vn -0.0000 0.7071 -0.7071
vn 0.0000 0.7071 -0.7071
vn -0.0000 -0.7071 -0.7071
vn 0.0000 -0.7071 -0.7071
vn -0.5443 -0.4904 0.6806
vn -0.3175 -0.7080 0.6308
vn -0.6677 -0.4040 0.6252
vn -0.6316 -0.2851 0.7210
vn -0.3763 0.5484 0.7468
vn -0.6677 0.4040 0.6252
vn -0.6316 0.2851 0.7210
vn -0.1283 0.6715 0.7298
vn 0.7071 -0.7071 0.0000
vn -0.5547 -0.7604 0.3378
vn -0.7071 -0.7071 0.0000
vn 0.7071 0.7071 0.0000
vn -0.7071 0.7071 0.0000
vn -0.5547 0.7604 0.3378
vn -0.1711 -0.7172 0.6756
vn -0.1699 -0.7172 0.6759
vn -0.1699 0.7172 0.6759
vn -0.1711 0.7172 0.6756
vn -0.7459 0.0000 0.6661
vn -1.0000 0.0000 0.0000
vn -0.4588 0.0000 0.8885
vn -0.0173 0.0000 0.9998
vn -0.0122 -0.7085 0.7056
vn -0.0122 0.7085 0.7056
vn -0.5443 0.4904 0.6806
vn -0.3175 0.7080 0.6308
vn -0.0219 0.0000 0.9998
vn -0.0047 0.0000 1.0000
vn -0.0174 0.0000 0.9998
vn -0.3732 -0.5479 0.7487
vn -0.0304 -0.6914 0.7218
vn -0.0251 -0.7047 0.7091
vn -0.1176 -0.6830 0.7209
vn -0.0124 0.7008 0.7132
vn -0.0155 0.7061 0.7079
vn -0.0290 0.0000 0.9996
vn -0.7828 -0.0000 0.6223
vn -0.7828 0.0000 0.6223
vn -0.5122 0.0000 0.8589
vn 0.0210 0.0000 0.9998
vn -0.9641 0.0000 -0.2656
vn 0.9999 0.0000 -0.0105
vn -1.0000 0.0000 -0.0092
vn 1.0000 0.0000 0.0092
vn 0.0094 0.0000 -1.0000
vn -0.0040 0.0000 -1.0000
vn 0.0145 0.0000 0.9999
vn -0.0175 0.0000 -0.9998
# 62 vertex normals

vt 0.8970 0.1011 0.0000
vt 0.8951 0.4459 0.0000
vt 0.8861 0.4474 0.0000
vt 0.8875 0.1027 0.0000
vt 0.7835 0.3192 0.0000
vt 0.7817 0.3422 0.0000
vt 0.7724 0.3415 0.0000
vt 0.7742 0.3184 0.0000
vt 0.7442 0.3129 0.0000
vt 0.7364 0.6579 0.0000
vt 0.6858 0.6546 0.0000
vt 0.4767 0.3069 0.0000
vt 0.6781 0.6417 0.0000
vt 0.6589 0.6100 0.0000
vt 0.5695 0.6078 0.0000
vt 0.5478 0.6073 0.0000
vt 0.4749 0.5690 0.0000
vt 0.9077 0.8846 0.0000
vt 0.8984 0.8841 0.0000
vt 0.4702 0.5675 0.0000
vt 0.3978 0.6054 0.0000
vt 0.3763 0.6059 0.0000
vt 0.2875 0.6079 0.0000
vt 0.4688 0.3074 0.0000
vt 0.2034 0.3088 0.0000
vt 0.2680 0.6390 0.0000
vt 0.2554 0.6488 0.0000
vt 0.2052 0.6512 0.0000
vt 0.8032 0.9649 0.0000
vt 0.7655 0.6403 0.0000
vt 0.7748 0.6396 0.0000
vt 0.8124 0.9638 0.0000
vt 0.7625 0.5325 0.0000
vt 0.7724 0.5324 0.0000
vt 0.9536 0.0927 0.0000
vt 0.9741 0.1085 0.0000
vt 0.9704 0.4397 0.0000
vt 0.9492 0.4404 0.0000
vt 0.1310 0.4411 0.0000
vt 0.1095 0.4403 0.0000
vt 0.1020 0.1080 0.0000
vt 0.1223 0.0920 0.0000
vt 0.0278 0.3186 0.0000
vt 0.0077 0.3207 0.0000
vt 0.0149 0.2799 0.0000
vt 0.0309 0.2661 0.0000
vt 0.8539 0.3330 0.0000
vt 0.8514 0.3527 0.0000
vt 0.8366 0.3361 0.0000
vt 0.8408 0.3092 0.0000
vt 0.1432 0.8738 0.0000
vt 0.1223 0.8707 0.0000
vt 0.0105 0.5660 0.0000
vt 0.0305 0.5640 0.0000
vt 0.0401 0.8963 0.0000
vt 0.0195 0.8823 0.0000
vt 0.9820 0.8808 0.0000
vt 0.9613 0.8837 0.0000
vt 0.8851 0.9457 0.0000
vt 0.8669 0.9620 0.0000
vt 0.8284 0.6360 0.0000
vt 0.8481 0.6348 0.0000
vt 0.0142 0.4521 0.0000
vt 0.0344 0.4502 0.0000
vt 0.8275 0.5319 0.0000
vt 0.8479 0.5338 0.0000
vt 0.8988 0.4440 0.0000
vt 0.9020 0.0928 0.0000
vt 0.1741 0.0913 0.0000
vt 0.1816 0.4445 0.0000
vt 0.0802 0.2675 0.0000
vt 0.0788 0.3189 0.0000
vt 0.9118 0.8862 0.0000
vt 0.1930 0.8771 0.0000
vt 0.0801 0.5590 0.0000
vt 0.0906 0.8949 0.0000
vt 0.8176 0.9679 0.0000
vt 0.7802 0.6392 0.0000
vt 0.0844 0.4515 0.0000
vt 0.7788 0.5323 0.0000
vt 0.3061 0.6885 0.0000
vt 0.3003 0.6907 0.0000
vt 0.3135 0.6699 0.0000
vt 0.3193 0.6651 0.0000
vt 0.1790 0.0975 0.0000
vt 0.1857 0.4455 0.0000
vt 0.0858 0.5627 0.0000
vt 0.0951 0.8897 0.0000
vt 0.0902 0.4517 0.0000
vt 0.0867 0.5579 0.0000
vt 0.0820 0.2724 0.0000
vt 0.0840 0.3197 0.0000
vt 0.1972 0.8766 0.0000
vt 0.8319 0.5075 0.0000
vt 0.7781 0.5052 0.0000
vt 0.7836 0.3905 0.0000
vt 0.8385 0.3917 0.0000
vt 0.0308 0.4266 0.0000
vt 0.0107 0.4253 0.0000
vt 0.8527 0.5065 0.0000
vt 0.8598 0.3940 0.0000
vt 0.7717 0.5038 0.0000
vt 0.7617 0.5037 0.0000
vt 0.7685 0.3905 0.0000
vt 0.7781 0.3911 0.0000
vt 0.0811 0.4262 0.0000
vt 0.0872 0.4249 0.0000
vt 0.1311 0.9301 0.0000
vt 0.1841 0.9377 0.0000
vt 0.1050 0.9367 0.0000
vt 0.9718 0.9400 0.0000
vt 0.9976 0.9471 0.0000
vt 0.9028 0.9470 0.0000
vt 0.9125 0.9479 0.0000
vt 0.9184 0.9460 0.0000
vt 0.1893 0.9417 0.0000
vt 0.0156 0.2608 0.0000
vt 0.0310 0.2411 0.0000
vt 0.7835 0.3364 0.0000
vt 0.5798 0.6726 0.0000
vt 0.5643 0.6465 0.0000
vt 0.5709 0.6518 0.0000
vt 0.5864 0.6749 0.0000
vt 0.3746 0.8401 0.0000
vt 0.3207 0.8401 0.0000
vt 0.3746 0.8400 0.0000
vt 0.5670 0.8403 0.0000
vt 0.5068 0.8412 0.0000
vt 0.5073 0.8422 0.0000
vt 0.5666 0.8412 0.0000
vt 0.3207 0.9139 0.0000
vt 0.3207 0.8721 0.0000
vt 0.3746 0.8721 0.0000
vt 0.3746 0.9139 0.0000
vt 0.2631 0.8396 0.0000
vt 0.3049 0.8400 0.0000
vt 0.3045 0.8677 0.0000
vt 0.2627 0.8674 0.0000
vt 0.4004 0.8295 0.0000
vt 0.4004 0.7877 0.0000
vt 0.4544 0.7877 0.0000
vt 0.4544 0.8295 0.0000
vt 0.4325 0.8669 0.0000
vt 0.3907 0.8673 0.0000
vt 0.3902 0.8396 0.0000
vt 0.4320 0.8392 0.0000
vt 0.4506 0.8714 0.0000
vt 0.4914 0.8482 0.0000
vt 0.5068 0.8766 0.0000
vt 0.4655 0.8989 0.0000
vt 0.5992 0.8312 0.0000
vt 0.5984 0.7874 0.0000
vt 0.6550 0.7864 0.0000
vt 0.6558 0.8302 0.0000
vt 0.6101 0.8966 0.0000
vt 0.5681 0.8756 0.0000
vt 0.5826 0.8468 0.0000
vt 0.6242 0.8687 0.0000
vt 0.5079 0.9235 0.0000
vt 0.5685 0.9226 0.0000
vt 0.3733 0.6647 0.0000
vt 0.3869 0.6879 0.0000
vt 0.3904 0.8288 0.0000
vt 0.3746 0.8286 0.0000
vt 0.4003 0.6361 0.0000
vt 0.4543 0.6361 0.0000
vt 0.4544 0.7769 0.0000
vt 0.4004 0.7769 0.0000
vt 0.3206 0.8290 0.0000
vt 0.3048 0.8293 0.0000
vt 0.5034 0.6475 0.0000
vt 0.5674 0.8301 0.0000
vt 0.5061 0.8311 0.0000
vt 0.5853 0.8320 0.0000
vt 0.5955 0.6284 0.0000
vt 0.6521 0.6274 0.0000
vt 0.6548 0.7751 0.0000
vt 0.5982 0.7761 0.0000
vt 0.4886 0.6742 0.0000
vt 0.4883 0.8336 0.0000
vt 0.3208 0.8403 0.0000
vt 0.3743 0.8398 0.0000
vt 0.5069 0.8769 0.0000
vt 0.5680 0.8759 0.0000
# 184 texture coords

g Box041
f 1/1/1 2/2/1 3/3/1 
f 3/3/1 4/4/1 1/1/1 
f 5/5/2 6/6/3 7/7/3 
f 7/7/3 8/8/4 5/5/2 
f 9/9/5 10/10/5 11/11/5 
f 12/12/5 9/9/5 11/11/5 
f 12/12/5 11/11/5 13/13/5 
f 12/12/5 13/13/5 14/14/5 
f 12/12/5 14/14/5 15/15/5 
f 12/12/5 15/15/5 16/16/5 
f 12/12/5 16/16/5 17/17/5 
f 2/2/6 18/18/6 19/19/6 
f 19/19/6 3/3/6 2/2/6 
f 20/20/7 21/21/7 22/22/7 
f 20/20/7 22/22/7 23/23/7 
f 24/24/7 20/20/7 23/23/7 
f 25/25/7 24/24/7 23/23/7 
f 26/26/7 27/27/7 28/28/7 
f 23/23/7 26/26/7 28/28/7 
f 25/25/7 23/23/7 28/28/7 
f 4/29/8 29/30/8 30/31/8 
f 30/31/8 1/32/8 4/29/8 
f 29/30/9 31/33/10 32/34/10 
f 32/34/10 30/31/9 29/30/9 
f 33/35/11 24/36/11 25/37/11 
f 25/37/11 34/38/12 33/35/11 
f 35/39/13 9/40/13 12/41/13 
f 12/41/13 36/42/14 35/39/13 
f 37/43/15 14/44/16 13/45/17 
f 13/45/17 38/46/18 37/43/15 
f 27/47/19 26/48/20 39/49/21 
f 39/49/21 40/50/22 27/47/19 
f 9/40/23 35/39/23 41/51/23 
f 41/51/23 10/52/23 9/40/23 
f 17/53/24 42/54/24 36/55/25 
f 36/55/25 12/56/25 17/53/24 
f 34/38/26 25/37/26 28/57/26 
f 28/57/26 43/58/26 34/38/26 
f 24/59/27 33/60/27 44/61/28 
f 44/61/28 20/62/28 24/59/27 
f 42/54/24 17/53/24 16/63/29 
f 16/63/29 45/64/30 42/54/24 
f 46/65/31 21/66/32 20/62/28 
f 20/62/28 44/61/28 46/65/31 
f 33/35/1 34/38/1 47/67/1 
f 47/67/1 48/68/1 33/35/1 
f 35/39/1 36/42/1 49/69/1 
f 49/69/1 50/70/1 35/39/1 
f 37/43/15 38/46/18 51/71/33 
f 51/71/33 52/72/33 37/43/15 
f 34/38/6 43/58/6 53/73/6 
f 53/73/6 47/67/6 34/38/6 
f 41/51/6 35/39/6 50/70/6 
f 50/70/6 54/74/6 41/51/6 
f 36/55/34 42/54/34 55/75/34 
f 55/75/34 49/76/34 36/55/34 
f 44/61/34 33/60/34 48/77/34 
f 48/77/34 56/78/34 44/61/34 
f 42/54/35 45/64/35 57/79/35 
f 57/79/35 55/75/35 42/54/35 
f 46/65/35 44/61/35 56/78/35 
f 56/78/35 58/80/35 46/65/35 
f 48/68/5 47/67/5 2/2/5 
f 2/2/5 1/1/5 48/68/5 
f 47/67/5 53/73/5 18/18/5 
f 18/18/5 2/2/5 47/67/5 
f 59/81/5 6/82/5 5/83/5 
f 5/83/5 60/84/5 59/81/5 
f 58/80/5 56/78/5 30/31/5 
f 30/31/5 32/34/5 58/80/5 
f 56/78/5 48/77/5 1/32/5 
f 1/32/5 30/31/5 56/78/5 
f 50/70/7 49/69/7 4/85/7 
f 4/85/7 3/86/7 50/70/7 
f 49/76/7 55/75/7 29/87/7 
f 29/87/7 4/88/7 49/76/7 
f 55/75/7 57/79/7 31/89/7 
f 31/89/7 29/90/7 55/75/7 
f 52/72/7 51/71/7 7/91/7 
f 7/91/7 61/92/7 52/72/7 
f 54/74/7 50/70/7 3/86/7 
f 3/86/7 19/93/7 54/74/7 
f 62/94/36 63/95/36 64/96/36 
f 64/96/36 65/97/36 62/94/36 
f 37/43/15 66/98/37 15/99/37 
f 15/99/37 14/44/16 37/43/15 
f 22/100/38 62/94/38 65/97/39 
f 65/97/39 23/101/40 22/100/38 
f 67/102/41 68/103/41 61/104/41 
f 61/104/41 69/105/41 67/102/41 
f 70/106/36 66/98/36 37/43/36 
f 37/43/36 52/72/36 70/106/36 
f 64/96/5 63/95/5 67/102/5 
f 67/102/5 69/105/5 64/96/5 
f 70/106/7 68/107/7 31/89/7 
f 31/89/7 57/79/7 70/106/7 
f 71/108/42 41/51/43 54/74/43 
f 54/74/43 72/109/42 71/108/42 
f 11/110/44 10/52/45 41/51/46 
f 41/51/46 71/108/47 11/110/44 
f 40/111/22 43/58/48 28/57/49 
f 28/57/49 27/112/19 40/111/22 
f 8/113/4 19/19/50 18/18/50 
f 18/18/50 5/114/2 8/113/4 
f 60/115/42 53/73/43 43/58/43 
f 43/58/43 40/111/42 60/115/42 
f 53/73/5 60/115/5 5/114/5 
f 5/114/5 18/18/5 53/73/5 
f 72/109/7 54/74/7 19/93/7 
f 19/93/7 8/116/7 72/109/7 
f 69/105/51 61/104/52 7/7/3 
f 7/7/3 6/6/3 69/105/51 
f 11/117/44 71/118/47 38/46/18 
f 38/46/18 13/45/17 11/117/44 
f 26/48/20 23/101/40 65/97/39 
f 65/97/39 39/49/21 26/48/20 
f 65/97/39 64/96/33 59/119/33 
f 59/119/33 39/49/21 65/97/39 
f 64/96/5 69/105/5 6/6/5 
f 6/6/5 59/119/5 64/96/5 
f 51/120/7 72/121/7 8/122/7 
f 8/122/7 7/123/7 51/120/7 
f 73/124/53 74/125/53 74/125/54 
f 74/125/54 73/126/54 73/124/53 
f 66/98/37 45/64/30 16/63/29 
f 16/63/29 15/99/37 66/98/37 
f 21/66/32 46/65/31 62/94/38 
f 62/94/38 22/100/38 21/66/32 
f 32/34/10 31/33/10 68/103/41 
f 68/103/41 67/102/41 32/34/10 
f 75/127/55 76/128/55 76/129/56 
f 76/129/56 75/130/56 75/127/55 
f 63/95/5 58/80/5 32/34/5 
f 32/34/5 67/102/5 63/95/5 
f 52/72/7 61/92/7 68/107/7 
f 68/107/7 70/106/7 52/72/7 
f 58/131/57 77/132/57 78/133/57 
f 78/133/57 46/134/57 58/131/57 
f 63/135/5 79/136/5 77/137/5 
f 77/137/5 58/138/5 63/135/5 
f 62/139/58 80/140/58 79/141/58 
f 79/141/58 63/142/58 62/139/58 
f 46/143/7 78/144/7 80/145/7 
f 80/145/7 62/146/7 46/143/7 
f 66/147/5 81/148/5 82/149/5 
f 82/149/5 45/150/5 66/147/5 
f 70/151/58 83/152/58 81/153/58 
f 81/153/58 66/154/58 70/151/58 
f 57/155/7 84/156/7 83/157/7 
f 83/157/7 70/158/7 57/155/7 
f 45/159/57 82/149/57 84/156/57 
f 84/156/57 57/160/57 45/159/57 
f 40/161/7 39/162/7 85/163/7 
f 85/163/7 86/164/7 40/161/7 
f 39/165/59 59/166/59 87/167/60 
f 87/167/60 85/168/60 39/165/59 
f 59/81/5 60/84/5 88/169/5 
f 88/169/5 87/170/5 59/81/5 
f 60/84/42 40/161/42 86/164/61 
f 86/164/61 88/169/61 60/84/42 
f 71/171/42 72/121/42 89/172/61 
f 89/172/61 90/173/61 71/171/42 
f 72/121/7 51/120/7 91/174/7 
f 91/174/7 89/172/7 72/121/7 
f 51/175/59 38/176/59 92/177/60 
f 92/177/60 91/178/60 51/175/59 
f 38/179/5 71/171/5 90/173/5 
f 90/173/5 92/180/5 38/179/5 
f 77/132/53 78/133/53 78/133/57 
f 78/133/57 77/132/57 77/132/53 
f 74/181/5 74/181/6 77/137/6 
f 74/181/5 77/137/6 77/137/5 
f 79/136/5 74/181/5 77/137/5 
f 78/144/7 78/144/6 73/182/7 
f 73/182/7 73/182/7 80/145/7 
f 78/144/7 73/182/7 80/145/7 
f 76/129/7 76/128/7 82/183/7 
f 76/129/7 82/183/7 82/149/5 
f 81/148/5 76/129/7 82/149/5 
f 84/156/7 84/184/6 75/127/5 
f 75/127/5 75/130/5 83/157/7 
f 84/156/7 75/127/5 83/157/7 
f 82/183/53 84/184/53 84/156/57 
f 84/156/57 82/149/57 82/183/53 
f 86/164/7 85/163/7 80/145/7 
f 80/145/7 73/182/7 86/164/7 
f 85/168/60 87/167/60 79/141/62 
f 79/141/62 80/140/62 85/168/60 
f 87/170/5 88/169/5 74/181/5 
f 74/181/5 79/136/5 87/170/5 
f 88/169/61 86/164/61 73/126/54 
f 73/126/54 74/125/54 88/169/61 
f 89/172/7 91/174/7 83/157/7 
f 83/157/7 75/130/5 89/172/7 
f 91/178/60 92/177/60 81/153/62 
f 81/153/62 83/152/62 91/178/60 
f 92/180/5 90/173/5 76/129/7 
f 76/129/7 81/148/5 92/180/5 
f 90/173/61 89/172/61 75/130/56 
f 75/130/56 76/129/56 90/173/61 
f 73/124/53 78/133/53 77/132/53 
f 77/132/53 74/125/53 73/124/53 
f 75/127/55 84/184/53 82/183/53 
f 82/183/53 76/128/55 75/127/55 
# 204 faces

#
# object Cylinder045
#

v  -1.2402 -0.2280 1.0919
v  -1.1765 -0.1037 1.1250
v  -1.1401 -0.1037 1.0548
v  -1.2038 -0.2280 1.0218
v  -1.0491 -0.1037 1.1911
v  -1.0127 -0.1037 1.1209
v  -0.9854 -0.2280 1.2241
v  -0.9490 -0.2280 1.1539
v  -1.0491 -0.3523 1.1911
v  -1.0127 -0.3523 1.1209
v  -1.1765 -0.3523 1.1250
v  -1.1401 -0.3523 1.0548
v  -1.0713 -0.1361 0.9628
v  -0.9771 -0.1361 1.0117
v  -0.9300 -0.2280 1.0361
v  -0.9771 -0.3199 1.0117
v  -1.0713 -0.3199 0.9628
v  -1.1184 -0.2280 0.9384
v  -1.1235 -0.1361 1.0634
v  -1.1706 -0.2280 1.0390
v  -1.0293 -0.1361 1.1123
v  -0.9822 -0.2280 1.1367
v  -1.0293 -0.3199 1.1123
v  -1.1235 -0.3199 1.0634
# 24 vertices

vn -0.8877 -0.0000 -0.4604
vn -0.4439 0.8660 -0.2302
vn 0.4439 0.8660 0.2302
vn 0.8877 -0.0000 0.4604
vn 0.4439 -0.8660 0.2302
vn -0.4439 -0.8660 -0.2302
vn -0.4604 0.0000 0.8877
vn 0.4604 0.0000 -0.8877
vn -0.7688 0.5000 -0.3987
vn 0.0000 1.0000 0.0000
vn 0.7688 0.5000 0.3987
vn 0.7688 -0.5000 0.3987
vn 0.0000 -1.0000 0.0000
vn -0.7688 -0.5000 -0.3987
# 14 vertex normals

vt 0.7500 0.0000 1.0000
vt 0.9167 0.0000 1.0000
vt 0.9167 1.0000 1.0000
vt 0.7500 1.0000 1.0000
vt 1.0833 0.0000 1.0000
vt 1.0833 1.0000 1.0000
vt 0.0833 0.0000 1.0000
vt 0.2500 0.0000 1.0000
vt 0.2500 1.0000 1.0000
vt 0.0833 1.0000 1.0000
vt 0.4167 0.0000 1.0000
vt 0.4167 1.0000 1.0000
vt 0.5833 0.0000 1.0000
vt 0.5833 1.0000 1.0000
vt 0.9330 0.2500 -0.2500
vt 0.5000 0.0000 -0.2500
vt 0.0670 0.2500 -0.2500
vt 0.0670 0.7500 -0.2500
vt 0.5000 1.0000 -0.2500
vt 0.9330 0.7500 -0.2500
vt 0.0670 0.7500 0.2500
vt 0.0670 0.2500 0.2500
vt 0.5000 0.0000 0.2500
vt 0.9330 0.2500 0.2500
vt 0.9330 0.7500 0.2500
vt 0.5000 1.0000 0.2500
# 26 texture coords

g Cylinder045
f 93/185/63 94/186/64 95/187/64 
f 95/187/64 96/188/63 93/185/63 
f 94/186/64 97/189/65 98/190/65 
f 98/190/65 95/187/64 94/186/64 
f 97/191/65 99/192/66 100/193/66 
f 100/193/66 98/194/65 97/191/65 
f 99/192/66 101/195/67 102/196/67 
f 102/196/67 100/193/66 99/192/66 
f 101/195/67 103/197/68 104/198/68 
f 104/198/68 102/196/67 101/195/67 
f 103/197/68 93/185/63 96/188/63 
f 96/188/63 104/198/68 103/197/68 
f 101/199/69 99/200/69 97/201/69 
f 97/201/69 94/202/69 93/203/69 
f 101/199/69 97/201/69 93/203/69 
f 103/204/69 101/199/69 93/203/69 
f 105/205/70 106/206/70 107/207/70 
f 107/207/70 108/208/70 109/209/70 
f 105/205/70 107/207/70 109/209/70 
f 110/210/70 105/205/70 109/209/70 
f 96/210/70 95/205/70 111/205/70 
f 111/205/70 112/210/70 96/210/70 
f 95/205/70 98/206/70 113/206/70 
f 113/206/70 111/205/70 95/205/70 
f 98/206/70 100/207/70 114/207/70 
f 114/207/70 113/206/70 98/206/70 
f 100/207/70 102/208/70 115/208/70 
f 115/208/70 114/207/70 100/207/70 
f 102/208/70 104/209/70 116/209/70 
f 116/209/70 115/208/70 102/208/70 
f 104/209/70 96/210/70 112/210/70 
f 112/210/70 116/209/70 104/209/70 
f 112/210/71 111/205/71 105/205/71 
f 105/205/71 110/210/71 112/210/71 
f 111/205/72 113/206/72 106/206/72 
f 106/206/72 105/205/72 111/205/72 
f 113/206/73 114/207/73 107/207/73 
f 107/207/73 106/206/73 113/206/73 
f 114/207/74 115/208/74 108/208/74 
f 108/208/74 107/207/74 114/207/74 
f 115/208/75 116/209/75 109/209/75 
f 109/209/75 108/208/75 115/208/75 
f 116/209/76 112/210/76 110/210/76 
f 110/210/76 109/209/76 116/209/76 
# 44 faces

